<?xml version="1.0" encoding="utf-8"?>
<!-- Generator: Adobe Illustrator 15.0.0, SVG Export Plug-In . SVG Version: 6.00 Build 0)  -->
<!DOCTYPE svg PUBLIC "-//W3C//DTD SVG 1.1//EN" "http://www.w3.org/Graphics/SVG/1.1/DTD/svg11.dtd">
<svg version="1.1"
	 id="Layer_1" image-rendering="optimizeQuality" shape-rendering="geometricPrecision" text-rendering="geometricPrecision"
	 xmlns="http://www.w3.org/2000/svg" xmlns:xlink="http://www.w3.org/1999/xlink" x="0px" y="0px" width="595.275px"
	 height="841.89px" viewBox="0 0 595.275 841.89" enable-background="new 0 0 595.275 841.89" xml:space="preserve">
<g id="Layer_x0020_1">
	<path fill="#FFFFFF" d="M15.194,4.098C7.937,4.239,2.126,10.164,2.126,17.449S7.965,30.658,15.194,30.8V4.098z M16.526,30.8
		c7.257-0.142,13.068-6.066,13.068-13.351S23.754,4.239,16.526,4.098V30.8z M25.993,14.558c-0.879-0.907-1.984-1.361-3.26-1.361
		s-2.381,0.454-3.26,1.361c-0.907,0.907-1.36,1.984-1.36,3.26c0,1.19,0.396,2.239,1.19,3.09c0.113,0.142,0.227,0.142,0.368,0
		l1.049-0.992c0.113-0.113,0.085-0.227,0-0.312c-0.453-0.482-0.651-1.049-0.651-1.729c0-0.708,0.255-1.304,0.765-1.786
		c0.511-0.482,1.134-0.709,1.871-0.709c0.709,0,1.332,0.255,1.843,0.737c0.51,0.482,0.766,1.077,0.766,1.786
		c0,0.652-0.199,1.247-0.624,1.701c-0.113,0.114-0.085,0.227,0,0.34l1.049,0.992c0.113,0.113,0.227,0.113,0.34,0
		c0.822-0.851,1.248-1.899,1.248-3.118C27.326,16.542,26.872,15.436,25.993,14.558z M5.754,20.34c0.879,0.907,1.984,1.36,3.26,1.36
		s2.382-0.454,3.26-1.36c0.907-0.907,1.361-1.984,1.361-3.26c0-1.19-0.397-2.239-1.19-3.089c-0.114-0.142-0.228-0.142-0.369,0
		l-1.049,0.992c-0.113,0.114-0.113,0.227,0,0.312c0.426,0.482,0.652,1.049,0.652,1.729c0,0.709-0.255,1.304-0.766,1.786
		c-0.51,0.482-1.134,0.708-1.871,0.708c-0.708,0-1.332-0.255-1.842-0.737c-0.511-0.482-0.766-1.077-0.766-1.786
		c0-0.652,0.198-1.247,0.623-1.701c0.114-0.113,0.085-0.227,0-0.34l-1.049-0.992c-0.113-0.114-0.227-0.114-0.34,0
		c-0.822,0.85-1.247,1.899-1.247,3.118C4.422,18.356,4.875,19.461,5.754,20.34z"/>
</g>
</svg>
