<?xml version="1.0" encoding="utf-8"?>
<!-- Generator: Adobe Illustrator 15.0.0, SVG Export Plug-In . SVG Version: 6.00 Build 0)  -->
<!DOCTYPE svg PUBLIC "-//W3C//DTD SVG 1.1//EN" "http://www.w3.org/Graphics/SVG/1.1/DTD/svg11.dtd">
<svg version="1.1" id="Layer_1" xmlns="http://www.w3.org/2000/svg" xmlns:xlink="http://www.w3.org/1999/xlink" x="0px" y="0px"
	 width="30px" height="45px" viewBox="0 0 30 45" enable-background="new 0 0 30 45" xml:space="preserve">
<g>
	<path fill="#CDCCCC" d="M7.578,38.288c-0.558,1.537-1.811,1.853-2.8,1.853c-1.453,0-2.18-1.042-2.18-2.126
		c0-1.011,0.632-2.063,1.906-2.327c-0.716-0.389-1.042-1-1.042-1.6c0-0.958,0.842-1.906,2.337-1.906c0.979,0,1.938,0.39,1.938,1.411
		c0,0.558-0.2,0.968-0.737,0.968c-0.168,0-0.4-0.042-0.6-0.273c0.263-0.074,0.463-0.6,0.463-0.864c0-0.168-0.021-0.779-0.695-0.779
		c-0.769,0-1.285,0.589-1.285,1.295c0,0.611,0.4,1.295,1.39,1.737c-1.337,0.547-1.832,1.39-1.832,2.116c0,0.769,0.558,1.4,1.231,1.4
		c0.811,0,1.274-0.337,1.664-1.011L7.578,38.288z"/>
	<path fill="#CDCCCC" d="M10.041,32.708L8.83,38.394c-0.032,0.158-0.053,0.253-0.053,0.337c0,0.231,0.116,0.39,0.526,0.39
		c0.421,0,0.969-0.59,1.39-0.927h0.358c-0.484,0.484-1.674,1.885-2.496,1.885c-0.811,0-1.305-0.358-1.305-1.147
		c0-0.158,0.021-0.337,0.063-0.537l1.168-5.475L10.041,32.708z"/>
	<path fill="#CDCCCC" d="M15.378,34.814l-0.979,4.611c0.653-0.316,1.253-0.779,1.611-1.558l-0.042,0.832
		c-0.137,0.664-0.853,0.979-1.674,1.211l-0.21,1.011c-0.316,1.505-1.2,1.79-1.895,1.79c-0.643,0-1.243-0.453-1.243-1.137
		c0-0.969,0.811-1.285,1.811-1.579l0.147-0.716c-0.474,0.432-0.99,0.8-1.411,0.8c-0.811,0-1.316-0.358-1.316-1.147
		c0-0.158,0.021-0.337,0.063-0.537l0.758-3.58h1.516l-0.758,3.58c-0.021,0.116-0.042,0.231-0.042,0.326c0,0.232,0.105,0.4,0.526,0.4
		c0.232,0,0.516-0.179,0.79-0.411l0.832-3.896H15.378z M11.946,41.773c0.21,0,0.484-0.2,0.61-0.821l0.126-0.611
		c-0.663,0.221-1.158,0.516-1.158,1.084C11.524,41.573,11.714,41.773,11.946,41.773z"/>
	<path fill="#CDCCCC" d="M18.293,32.708l-0.506,2.39c0.242-0.179,0.559-0.305,0.906-0.305c1.011,0,1.337,0.716,1.337,1.337
		c0,1.653-0.905,3.98-2.79,3.98c-1.043,0-1.737-0.295-1.737-1.2c0-0.147,0.021-0.327,0.063-0.516l1.168-5.475L18.293,32.708z
		 M18.251,35.424c-0.105,0-0.474,0.074-0.568,0.147l-0.601,2.822c-0.053,0.253-0.084,0.442-0.084,0.579
		c0,0.316,0.147,0.39,0.463,0.39c0.863,0,1.39-2.4,1.39-3.159C18.851,35.572,18.514,35.424,18.251,35.424z"/>
	<path fill="#CDCCCC" d="M22.408,34.814l-0.759,3.58c-0.021,0.116-0.042,0.231-0.042,0.326c0,0.232,0.105,0.4,0.526,0.4
		s0.969-0.59,1.39-0.927h0.358c-0.484,0.484-1.674,1.885-2.495,1.885c-0.811,0-1.316-0.358-1.316-1.147
		c0-0.158,0.021-0.337,0.063-0.537l0.758-3.58H22.408z M21.924,32.582c0.463,0,0.842,0.379,0.842,0.842
		c0,0.463-0.379,0.832-0.842,0.832c-0.464,0-0.832-0.369-0.832-0.832C21.092,32.961,21.46,32.582,21.924,32.582z"/>
	<path fill="#CDCCCC" d="M26.798,40.078c-0.685,0-1.074-0.358-1.074-1.147c0-0.168,0.021-0.337,0.063-0.537l0.4-1.895
		c0.021-0.095,0.031-0.189,0.031-0.274c0-0.379-0.2-0.621-0.484-0.621c-0.253,0-0.442,0.074-0.663,0.221l-0.896,4.253H22.66
		l1.116-5.264h1.516l-0.126,0.568c0.432-0.316,0.916-0.568,1.379-0.568c0.579,0,1.211,0.61,1.211,1.327
		c0,0.084-0.011,0.158-0.021,0.242c-0.052,0.347-0.505,2.2-0.505,2.432c0,0.179,0.084,0.327,0.39,0.327c0.073,0,0.189,0,0.273-0.032
		C27.598,40.015,27.155,40.078,26.798,40.078z"/>
</g>
<path fill-rule="evenodd" clip-rule="evenodd" fill="#5CC3E0" d="M15.294,29.445c7.835,0,14.23-6.385,14.23-14.22
	c0-7.834-6.396-14.22-14.23-14.22c-7.824,0-14.219,6.385-14.219,14.22C1.075,23.06,7.47,29.445,15.294,29.445L15.294,29.445z"/>
<path fill-rule="evenodd" clip-rule="evenodd" fill="#FFFFFF" d="M6.97,15.007h6.046c-0.033,0.141-0.043,0.294-0.043,0.447
	c0,1.373,1.111,2.473,2.484,2.473c1.362,0,2.474-1.1,2.474-2.473c0-0.153-0.012-0.306-0.033-0.447h6.33
	c-2.135-3.89-2.516-4.817-3.421-4.991h-1.133l-0.098,0.011l0.011-0.011h-7.977l0.011,0.011l-0.098-0.011h-1.132
	C9.487,10.19,9.105,11.117,6.97,15.007L6.97,15.007z M25.111,15.17v5.874H6.098v-5.71l-0.022-0.338l3.64-6.647V8.294h11.724v0.022
	l0.012-0.011l3.672,6.69L25.111,15.17z"/>
<path fill-rule="evenodd" clip-rule="evenodd" fill="#FFFFFF" d="M11.405,10.452l-0.458-0.011c-0.522,0.043-0.871,0.305-1.144,0.665
	l-1.831,3.345l0,0l-0.01,0.011h3.911h1.69l0,0h9.653l-0.522-0.969h-9.644l-0.294-0.523h9.632l-0.522-0.959h-9.622l-0.316-0.588h9.6
	l-0.229-0.436c-0.12-0.24-0.502-0.523-0.873-0.534h-9l-0.01,0.011L11.405,10.452z M10.751,12.152c0.316,0,0.577,0.262,0.577,0.578
	c0,0.326-0.261,0.577-0.577,0.577c-0.316,0-0.578-0.251-0.578-0.577C10.173,12.414,10.435,12.152,10.751,12.152L10.751,12.152z"/>
</svg>
