<?xml version="1.0" encoding="utf-8"?>
<!-- Generator: Adobe Illustrator 15.0.0, SVG Export Plug-In . SVG Version: 6.00 Build 0)  -->
<!DOCTYPE svg PUBLIC "-//W3C//DTD SVG 1.1//EN" "http://www.w3.org/Graphics/SVG/1.1/DTD/svg11.dtd">
<svg version="1.1" id="Layer_1" xmlns="http://www.w3.org/2000/svg" xmlns:xlink="http://www.w3.org/1999/xlink" x="0px" y="0px"
	 width="100px" height="100px" viewBox="0 0 30 30" enable-background="new 0 0 30 30" xml:space="preserve">

<path fill-rule="evenodd" clip-rule="evenodd" fill="#5CC3E0" d="M15.294,29.445c7.835,0,14.23-6.385,14.23-14.22
	c0-7.834-6.396-14.22-14.23-14.22c-7.824,0-14.219,6.385-14.219,14.22C1.075,23.06,7.47,29.445,15.294,29.445L15.294,29.445z"/>
<path fill-rule="evenodd" clip-rule="evenodd" fill="#FFFFFF" d="M6.97,15.007h6.046c-0.033,0.141-0.043,0.294-0.043,0.447
	c0,1.373,1.111,2.473,2.484,2.473c1.362,0,2.474-1.1,2.474-2.473c0-0.153-0.012-0.306-0.033-0.447h6.33
	c-2.135-3.89-2.516-4.817-3.421-4.991h-1.133l-0.098,0.011l0.011-0.011h-7.977l0.011,0.011l-0.098-0.011h-1.132
	C9.487,10.19,9.105,11.117,6.97,15.007L6.97,15.007z M25.111,15.17v5.874H6.098v-5.71l-0.022-0.338l3.64-6.647V8.294h11.724v0.022
	l0.012-0.011l3.672,6.69L25.111,15.17z"/>
<path fill-rule="evenodd" clip-rule="evenodd" fill="#FFFFFF" d="M11.405,10.452l-0.458-0.011c-0.522,0.043-0.871,0.305-1.144,0.665
	l-1.831,3.345l0,0l-0.01,0.011h3.911h1.69l0,0h9.653l-0.522-0.969h-9.644l-0.294-0.523h9.632l-0.522-0.959h-9.622l-0.316-0.588h9.6
	l-0.229-0.436c-0.12-0.24-0.502-0.523-0.873-0.534h-9l-0.01,0.011L11.405,10.452z M10.751,12.152c0.316,0,0.577,0.262,0.577,0.578
	c0,0.326-0.261,0.577-0.577,0.577c-0.316,0-0.578-0.251-0.578-0.577C10.173,12.414,10.435,12.152,10.751,12.152L10.751,12.152z"/>
</svg>
